Encoded By .......: BigPerm
Runtime ..........: 2h 4mn
File Size ........: 7.63 GB
Resolution .......: 1904 x 1040 
http://www.imdb.com/title/tt0190865/
Genre ............: Action,Adventure,Thriller
Source ...........: BluRay
Language .........: English
Subtitles ........: None
General

Complete name : Verical Limit 2000 1080p DTS BluRay x264 BigPerm LKRG\Vertical Limit.mkv
Format : Matroska
File size : 7.63 GiB
Duration : 2h 4mn
Overall bit rate : 8 776 Kbps
Encoded date : UTC 2011-11-14 06:13:19
Writing application : mkvmerge v4.3.0 ('Escape from the Island') built on Sep 5 2010 10:30:51
Writing library : libebml v1.0.0 + libmatroska v1.0.0
Video
ID : 1
Format : AVC
Format/Info : Advanced Video Codec
Format profile : High@L4.0
Format settings, CABAC : Yes
Format settings, ReFrames : 4 frames
Format settings, GOP : M=4, N=16
Codec ID : V_MPEG4/ISO/AVC
Duration : 2h 4mn
Bit rate : 8 153 Kbps
Width : 1 904 pixels
Height : 1 040 pixels
Display aspect ratio : 16:9
Frame rate : 23.976 fps
Color space : YUV
Chroma subsampling : 4:2:0
Bit depth : 8 bits
Scan type : Progressive
Bits/(Pixel*Frame) : 0.172
Stream size : 7.09 GiB (93%)

Audio
ID : 2
Format : AC-3
Format/Info : Audio Coding 3
Mode extension : CM (complete main)
Codec ID : A_AC3
Duration : 2h 4mn
Bit rate mode : Constant
Bit rate : 448 Kbps
Channel(s) : 6 channels
Channel positions : Front: L C R, Side: L R, LFE
Sampling rate : 48.0 KHz
Bit depth : 16 bits
Compression mode : Lossy
Stream size : 399 MiB (5%)
Language : English